<?xml version="1.0" encoding="UTF-8"?>
<svg id="Layer_2" data-name="Layer 2" xmlns="http://www.w3.org/2000/svg" width="317.23" height="303.86" viewBox="0 0 317.23 303.86">
  <defs>
    <style>
      .cls-1 {
        fill: none;
        stroke: #fff;
        stroke-miterlimit: 10;
        stroke-width: 10px;
      }

      .cls-2 {
        font-family: SairaSemiCondensed-Bold, 'Saira SemiCondensed';
        font-size: 26px;
        font-weight: 700;
      }

      .cls-2, .cls-3 {
        fill: #fff;
      }

      .cls-3 {
        stroke-width: 0px;
      }
    </style>
  </defs>
  <g id="Layer_1-2" data-name="Layer 1">
    <path class="cls-3" d="M247.06,180.53v-.07s.07-1.05.07-1.05h-.09c-.26-9.16-4.08-17.47-10.12-23.51-1.68-1.68-3.53-3.18-5.53-4.48,2-1.3,3.85-2.81,5.53-4.48,6.24-6.23,10.12-14.88,10.14-24.39v-.06s.06-1.05.06-1.05h-.09c-.26-9.16-4.08-17.47-10.12-23.51-5.14-5.15-11.94-8.69-19.51-9.78l2.36-7.16c.92-2.8,3.54-4.69,6.48-4.69h6.19v-11.33h-30.45v11.33h4.07c.7,0,1.28.27,1.71.72.43.44.69,1.05.69,1.68,0,.25-.04.5-.12.76l-2.75,8.34h-87.52l-2.75-8.34c-.09-.26-.12-.51-.12-.76,0-.63.26-1.23.69-1.68.44-.44,1.02-.72,1.71-.72h3.88v-11.33h-30.45v11.33h6.75c2.73,0,5.15,1.75,6,4.34l2.36,7.15h-25.22v11.33h2.93c1.2,0,2.27.48,3.06,1.27.79.79,1.27,1.86,1.27,3.06v95.95c0,1.2-.48,2.27-1.27,3.06-.79.79-1.86,1.27-3.06,1.27h-2.93v11.33h67.18s11.93,0,11.93,0h0s3.61,0,3.61,0l-1.96,5.94h-11.63l2.91,8.82c.09.26.12.51.12.76,0,.63-.26,1.23-.69,1.68-.44.44-1.02.72-1.71.72h-4.07v11.33h30.45v-11.33h-4.07c-.7,0-1.28-.27-1.71-.72-.43-.44-.69-1.05-.69-1.68,0-.25.04-.5.12-.76l.31-.95h0l4.55-13.81h.06l3.73-11.33h-.06l13.42-40.7h-11.93l-13.42,40.7h-11.08l-15.38-46.64h71.5c6.46,0,12.25,2.6,16.49,6.83,4.23,4.24,6.83,10.03,6.83,16.49,0,6.46-2.6,12.25-6.83,16.49-4.24,4.23-10.03,6.83-16.49,6.83h-26.79l-3.73,11.33h30.54s0,0,0,0c9.55,0,18.24-3.89,24.49-10.15,6.24-6.23,10.11-14.88,10.14-24.38ZM128.99,157.09l15.38,46.64h-44.85v-46.64h29.48ZM123.79,105.14v-.11l-.11.03h-11.85l13.42,40.7h-25.74v-46.64h10.34v.03l.11-.03h91.9l-15.38,46.64h-49.3l-13.39-40.63ZM213.78,99.17c5.91.34,11.19,2.86,15.13,6.79,4.23,4.24,6.83,10.03,6.83,16.49,0,6.46-2.6,12.25-6.83,16.49-4.24,4.23-10.03,6.83-16.49,6.83h-14l15.36-46.6Z"/>
    <g>
      <path class="cls-3" d="M72.97,28.33l6.36-4.2c1.33-.88,2.53-1.23,3.6-1.04,1.07.19,2.02.91,2.85,2.17.7,1.06,1.04,1.98,1.03,2.78-.01.8-.36,1.56-1.03,2.27l.06.09c1-.37,1.87-.42,2.61-.13s1.48.99,2.22,2.11c.86,1.3,1.2,2.5,1,3.59-.19,1.09-1.02,2.12-2.48,3.09l-6.35,4.2-9.87-14.92ZM83.17,30.04c.18-.24.23-.5.17-.78-.06-.28-.24-.65-.54-1.09-.32-.48-.59-.8-.81-.96s-.47-.21-.75-.14c-.28.07-.66.27-1.15.59l-1.93,1.28,2.12,3.21,1.93-1.28c.46-.31.78-.58.95-.82ZM87.33,36.07c.17-.23.22-.49.16-.77-.06-.28-.25-.67-.58-1.16-.32-.49-.61-.82-.85-1-.24-.17-.5-.23-.79-.16-.29.07-.67.26-1.15.57l-2.02,1.33,2.22,3.36,2.02-1.33c.49-.32.82-.6.99-.84Z"/>
      <path class="cls-3" d="M104.4,30.6l-4.65-4.69-2.33,1.16,2.79,5.61-3.61,1.79-7.96-16.02,6.59-3.27c1.32-.65,2.41-.95,3.28-.89.86.06,1.59.41,2.18,1.02.59.62,1.18,1.53,1.78,2.74.56,1.13.92,2.16,1.07,3.08.15.92-.06,1.76-.64,2.51l5.3,5.06-3.8,1.88ZM99.13,22.3c.23-.25.33-.54.28-.88-.05-.33-.24-.84-.58-1.52-.35-.7-.63-1.17-.86-1.42-.23-.24-.51-.35-.85-.3-.34.04-.85.23-1.53.57l-1.84.91,2.2,4.42,1.82-.9c.68-.34,1.14-.63,1.38-.89Z"/>
      <path class="cls-3" d="M114.33,26.41l-2.08-5.8-8.8-9.31,3.92-1.4,5.38,6.17.2-.07.18-8.15,3.82-1.37-.87,12.77,2.07,5.8-3.82,1.37Z"/>
      <path class="cls-3" d="M129.69,14.31l-.72-3.12,5.7-1.31,2.25,9.75c-.71.34-1.54.68-2.5,1.02-.96.34-1.86.6-2.69.79-1.94.45-3.44.55-4.48.3-1.04-.25-1.89-.95-2.54-2.1-.65-1.15-1.27-3-1.85-5.55-.56-2.43-.8-4.32-.72-5.65.08-1.33.55-2.37,1.41-3.1.85-.73,2.25-1.32,4.19-1.77.95-.22,1.93-.38,2.96-.48,1.03-.1,1.79-.15,2.29-.14l.7,3.04c-1.81.19-3.1.37-3.88.55-1.44.33-2.39.65-2.88.96s-.73.85-.75,1.63c-.02.78.2,2.13.64,4.05.4,1.76.76,3,1.06,3.73.3.73.68,1.19,1.14,1.36.46.18,1.15.16,2.08-.05.4-.09.91-.23,1.51-.4l-.92-3.98-2.03.47Z"/>
      <path class="cls-3" d="M146.51,11.53l-.34-3.18,5.82-.61,1.05,9.96c-.74.25-1.61.49-2.61.71s-1.92.37-2.76.46c-1.98.21-3.48.13-4.48-.25-1.01-.37-1.76-1.17-2.26-2.39-.5-1.22-.89-3.13-1.17-5.73-.26-2.48-.27-4.38-.02-5.7.24-1.32.84-2.28,1.77-2.91.94-.62,2.39-1.04,4.38-1.24.96-.1,1.96-.14,2.99-.12,1.03.02,1.79.07,2.29.14l.33,3.1c-1.81-.03-3.12-.01-3.91.07-1.47.15-2.46.35-2.97.6-.51.25-.83.75-.94,1.52-.11.77-.06,2.14.14,4.1.19,1.79.39,3.07.6,3.83.21.76.53,1.26.97,1.49.43.23,1.12.3,2.07.2.41-.04.93-.11,1.54-.21l-.43-4.06-2.07.22Z"/>
      <path class="cls-3" d="M160.3,17.96l-4.16-17.96,4.13.07,2.85,13.65h.21s3.21-13.55,3.21-13.55l4.08.06-4.73,17.82-5.59-.09Z"/>
      <path class="cls-3" d="M173.3,18.45l2.33-17.74,10.67,1.4-.44,3.33-6.68-.88-.5,3.79,5.72.75-.44,3.33-5.72-.75-.52,3.97,6.68.88-.44,3.32-10.67-1.4Z"/>
      <path class="cls-3" d="M196.29,22.7l-.48-6.58-2.52-.64-1.53,6.08-3.91-.99,4.38-17.34,7.13,1.8c1.43.36,2.45.85,3.06,1.46.62.61.94,1.34.99,2.19.04.85-.1,1.93-.43,3.24-.31,1.23-.71,2.24-1.19,3.04-.49.8-1.2,1.29-2.12,1.49l.73,7.29-4.11-1.04ZM197.68,12.97c.34-.04.6-.2.78-.49.18-.29.36-.8.55-1.54.19-.76.28-1.3.27-1.64-.02-.33-.16-.6-.45-.78s-.79-.37-1.54-.56l-1.99-.5-1.21,4.79,1.97.5c.74.19,1.28.26,1.62.22Z"/>
      <path class="cls-3" d="M212.19,28.14l-1.06-8.33-1.02-.4-2.68,6.88-3.76-1.46,6.48-16.67,3.76,1.46-2.57,6.62,1.02.4,6.38-5.14,4.05,1.57-7.94,6.07,1.51,10.63-4.17-1.62Z"/>
      <path class="cls-3" d="M218.94,31.1l8.39-15.8,9.51,5.05-1.57,2.96-5.95-3.16-1.79,3.38,5.1,2.71-1.57,2.96-5.1-2.71-1.88,3.54,5.95,3.16-1.57,2.96-9.51-5.05Z"/>
      <path class="cls-3" d="M234.2,39.85l8.11-11.9-3.48-2.37,1.96-2.88,10.34,7.04-1.96,2.88-3.5-2.39-8.11,11.91-3.35-2.28Z"/>
    </g>
    <text class="cls-2" transform="translate(27.86 153.94) rotate(-88.43)"><tspan x="0" y="0">E</tspan></text>
    <text class="cls-2" transform="translate(28.31 139.25) rotate(-82.01)"><tspan x="0" y="0">S</tspan></text>
    <text class="cls-2" transform="translate(30.48 124.36) rotate(-75.66)"><tspan x="0" y="0">T</tspan></text>
    <text class="cls-2" transform="translate(34.12 110.85) rotate(-71.22)"><tspan x="0" y="0"> </tspan></text>
    <text class="cls-2" transform="translate(36.35 104.25) rotate(-67.44)"><tspan x="0" y="0">1</tspan></text>
    <text class="cls-2" transform="translate(40.24 94.67) rotate(-61.8)"><tspan x="0" y="0">4</tspan></text>
    <g>
      <path class="cls-3" d="M27.9,152.28l-17.88-.49.29-10.76,3.35.09-.18,6.73,3.82.1.16-5.77,3.35.09-.16,5.77,4,.11.18-6.73,3.35.09-.29,10.76Z"/>
      <path class="cls-3" d="M28.28,137.8l-3.14-.44c.47-2.1.77-3.6.89-4.49.1-.71.14-1.26.13-1.66-.01-.4-.09-.7-.24-.9-.13-.18-.31-.3-.53-.38-.22-.07-.53-.14-.94-.2-.55-.08-.94-.1-1.19-.06-.24.04-.43.16-.56.35-.13.2-.28.55-.44,1.05l-.81,2.8c-.37,1.28-1,2.09-1.89,2.44-.89.35-2.11.41-3.65.2-1.49-.21-2.6-.62-3.32-1.23-.72-.61-1.15-1.36-1.29-2.25-.14-.89-.11-2,.07-3.32.23-1.63.64-3.28,1.22-4.95l3.09.43c-.41,1.52-.69,2.88-.86,4.08-.18,1.27-.17,2.1.02,2.5.09.22.24.38.45.46.21.08.54.15.98.22.5.07.85.09,1.07.07.21-.02.38-.12.5-.28.12-.17.25-.47.38-.91l.87-3c.2-.67.45-1.22.76-1.64.3-.42.77-.74,1.39-.95.81-.25,1.91-.28,3.32-.09,1.65.23,2.86.64,3.63,1.22.78.58,1.24,1.29,1.38,2.12.15.83.13,1.89-.05,3.18-.3,2.15-.71,4.02-1.24,5.63Z"/>
      <path class="cls-3" d="M31.61,119.95l-13.96-3.57-1.04,4.08-3.38-.86,3.1-12.12,3.38.86-1.05,4.11,13.96,3.57-1,3.93Z"/>
      <path class="cls-3" d="M37.66,101.08l-12.53-5.21v3.24s-3.14-1.31-3.14-1.31l-.39-4.69,1.1-2.64,16.52,6.86-1.56,3.74Z"/>
      <path class="cls-3" d="M44.07,87.52l-3.16-1.7-3.49,6.51-2.57-1.38-7.7-9.74,2.04-3.8,7.31,9.7,1.56-2.91-3.41-3.1,1.33-2.48,3.94,2.11.9-1.67,2.89,1.55-.9,1.67,3.16,1.7-1.89,3.53Z"/>
    </g>
    <g>
      <path class="cls-3" d="M298.45,88.39l-8.81,4.47c-2.13,1.08-3.73,1.76-4.8,2.03-1.07.27-2.01.12-2.82-.44-.81-.56-1.66-1.72-2.56-3.48-.89-1.76-1.33-3.14-1.3-4.12.02-.99.46-1.83,1.31-2.55.85-.71,2.34-1.61,4.45-2.69l8.81-4.47,1.84,3.62-9.76,4.96c-1.13.57-1.89,1-2.29,1.29-.4.29-.6.6-.61.93,0,.33.16.84.51,1.52.35.68.65,1.11.92,1.3.27.18.63.2,1.09.06.46-.15,1.26-.51,2.41-1.09l9.76-4.96,1.84,3.62Z"/>
      <path class="cls-3" d="M288.95,114.24l11.76-3.86-.06-.17-12.77.78-.99-3.01,10.75-6.93-.06-.17-11.76,3.86-1.18-3.61,16.99-5.58,1.81,5.51-9.96,6.42.06.17,11.83-.74,1.79,5.46-17,5.58-1.22-3.7Z"/>
      <path class="cls-3" d="M291.17,123.1l17.62-3.06,1.84,10.61-3.3.57-1.15-6.63-3.77.65.99,5.69-3.3.57-.99-5.69-3.95.68,1.15,6.63-3.3.57-1.84-10.61Z"/>
      <path class="cls-3" d="M294.21,152.34l-.19-4.1,3.54-1.07-.24-5.27-3.62-.69-.19-4.05,18.06,3.94c.19-.36.47-.59.83-.69.36-.1.89-.17,1.61-.2.79-.04,1.4,0,1.81.12.41.12.74.43.97.93.23.5.37,1.31.42,2.42.05,1.13-.01,1.95-.2,2.48-.18.53-.48.87-.88,1.03-.4.16-1,.25-1.8.29-.67.03-1.2,0-1.58-.07-.38-.08-.68-.28-.9-.6l-17.65,5.55ZM300.69,142.54l.17,3.66,7.24-2.1v-.16s-7.41-1.4-7.41-1.4ZM315.31,142.77c-.09-.2-.21-.31-.38-.35-.17-.04-.44-.04-.82-.03-.38.02-.65.05-.82.1-.16.05-.28.18-.35.38-.07.2-.09.53-.07.98.02.47.08.8.16.99s.21.32.37.36c.16.04.44.06.83.04.4-.02.67-.06.83-.12.15-.06.26-.19.33-.39.07-.2.09-.54.07-1-.02-.45-.07-.77-.16-.97Z"/>
    </g>
    <path class="cls-1" d="M43.46,71.95c7.31-10.86,16.09-20.65,26.05-29.09"/>
    <path class="cls-1" d="M33.57,212.8c-7.8-16.06-12.66-33.81-13.88-52.56"/>
    <path class="cls-1" d="M302.36,160.26c-1.2,18.47-5.94,35.98-13.54,51.85"/>
    <path class="cls-1" d="M251.12,41.67c10.55,8.7,19.81,18.91,27.47,30.28"/>
    <g>
      <path class="cls-3" d="M33.51,235.3l6.09-3.9-2.58-4.03-6.09,3.9-2.19-3.42,15.06-9.65,2.19,3.42-6,3.84,2.58,4.03,6-3.84,2.19,3.42-15.06,9.65-2.19-3.42Z"/>
      <path class="cls-3" d="M40.9,244.65c-.19-1.05.09-2.04.84-2.97.75-.93,2.16-2.26,4.24-3.99s3.64-2.88,4.69-3.45,2.07-.67,3.07-.29c1,.37,2.19,1.39,3.58,3.06,1.4,1.68,2.19,3.04,2.38,4.09.19,1.05-.09,2.03-.84,2.95-.75.92-2.17,2.25-4.26,3.99-2.09,1.74-3.66,2.9-4.69,3.47-1.04.57-2.06.67-3.05.29-1-.37-2.2-1.4-3.6-3.08-1.39-1.67-2.17-3.02-2.36-4.07ZM47.26,247.84c.35.12.83,0,1.43-.39s1.7-1.24,3.28-2.56c1.59-1.32,2.62-2.24,3.11-2.76.49-.52.71-.97.65-1.33-.06-.37-.39-.91-.99-1.63-.6-.72-1.07-1.14-1.43-1.27-.35-.12-.83,0-1.43.4-.6.39-1.69,1.24-3.28,2.56-1.58,1.32-2.62,2.24-3.11,2.76-.49.52-.71.97-.65,1.33.06.37.39.91.99,1.63.6.72,1.07,1.14,1.43,1.26Z"/>
      <path class="cls-3" d="M60.71,266.27l6.13-10.26-.12-.1-9.53,7.2-3.95-3.54,9.43-15.57,3.02,2.71-7.34,11.41.12.11,10.84-8.26,3.27,2.94-7.01,11.7.12.1,10.45-8.61,3,2.69-14.48,11.04-3.95-3.54Z"/>
      <path class="cls-3" d="M84.75,283.5c-.68-.31-1.3-.64-1.87-.98-1.67-1.02-2.77-2-3.28-2.95-.51-.95-.57-2.03-.18-3.26.39-1.22,1.23-2.91,2.54-5.06,1.29-2.12,2.39-3.63,3.31-4.55.92-.91,1.92-1.36,3-1.36,1.08,0,2.45.51,4.11,1.52.58.35,1.15.75,1.72,1.2.57.45,1.02.85,1.35,1.21l-1.62,2.67c-1.18-.9-1.97-1.47-2.39-1.72-1.01-.61-1.76-.93-2.26-.96-.5-.03-.99.23-1.46.78-.48.55-1.22,1.67-2.24,3.34-1.02,1.68-1.66,2.85-1.93,3.53-.27.68-.28,1.23-.02,1.66.26.43.89.95,1.9,1.56.86.52,1.76.98,2.7,1.37l-1.63,2.69c-.48-.15-1.06-.38-1.74-.69Z"/>
      <path class="cls-3" d="M99.85,291.03l.69-3.64-4.79-2.22-2.29,2.89-3.68-1.71,11.88-14.21,5.14,2.39-3.22,18.23-3.73-1.73ZM102.7,276.64l-.14-.07-4.67,5.92,3.32,1.54,1.49-7.39Z"/>
      <path class="cls-3" d="M116.88,297.29l-1.87-11.34-.12-.04-3.13,9.73-3.69-1.19,5.48-17.03,3.89,1.25,1.8,10.44.12.04,2.88-8.93,3.69,1.19-5.48,17.03-3.56-1.15Z"/>
      <path class="cls-3" d="M134,301.44l2.65-17.69,3.98.6-2.13,14.25,5.86.88-.52,3.44-9.85-1.47Z"/>
      <path class="cls-3" d="M148.71,303.37l.82-17.87,10.75.49-.15,3.35-6.73-.31-.18,3.82,5.77.27-.15,3.35-5.77-.27-.18,4,6.73.31-.15,3.35-10.75-.49Z"/>
      <path class="cls-3" d="M164.85,303.58l-.2-3.17c2.16.04,3.68.03,4.58-.03.71-.04,1.26-.11,1.66-.21.39-.09.67-.23.83-.42.15-.17.23-.36.26-.59.03-.23.03-.55,0-.96-.04-.55-.09-.94-.18-1.17-.08-.23-.24-.39-.46-.48-.22-.09-.6-.16-1.12-.22l-2.91-.23c-1.33-.11-2.25-.56-2.77-1.36-.52-.8-.83-1.98-.93-3.54-.09-1.5.08-2.67.54-3.5.45-.83,1.1-1.4,1.95-1.71.85-.31,1.94-.51,3.27-.6,1.64-.1,3.34-.04,5.09.2l.2,3.11c-1.57-.09-2.96-.1-4.17-.02-1.28.08-2.09.25-2.44.52-.2.13-.32.31-.36.53-.04.22-.04.55-.01,1,.03.5.08.85.14,1.06.07.2.19.35.38.43.19.08.51.15.96.19l3.12.25c.7.06,1.29.2,1.76.41.47.21.88.6,1.21,1.17.41.74.66,1.82.75,3.24.1,1.66-.05,2.93-.46,3.81s-1.01,1.47-1.8,1.78-1.83.51-3.13.59c-2.16.14-4.08.11-5.76-.08Z"/>
      <path class="cls-3" d="M181.5,302.22l-.54-3.12c2.15-.2,3.66-.37,4.55-.52.7-.12,1.24-.25,1.62-.39.38-.14.64-.3.78-.5.13-.18.19-.39.2-.62s-.03-.55-.1-.96c-.1-.55-.2-.93-.3-1.15-.11-.22-.28-.36-.51-.43-.23-.06-.61-.1-1.14-.09l-2.92.08c-1.33.04-2.3-.31-2.9-1.05s-1.04-1.88-1.3-3.42c-.26-1.49-.21-2.66.15-3.54.36-.87.94-1.51,1.75-1.91s1.87-.72,3.19-.95c1.62-.28,3.32-.4,5.08-.35l.53,3.07c-1.57.08-2.95.22-4.15.43-1.26.22-2.05.48-2.37.78-.18.15-.28.34-.3.57-.01.22.02.56.09,1,.08.5.17.84.26,1.04.09.2.23.33.42.39.2.06.52.09.98.08l3.12-.09c.7-.01,1.3.06,1.79.22.49.16.94.51,1.33,1.04.49.69.85,1.73,1.1,3.13.28,1.64.27,2.92-.05,3.83-.32.92-.85,1.57-1.6,1.97-.75.39-1.77.7-3.05.92-2.13.37-4.05.55-5.74.54Z"/>
      <path class="cls-3" d="M199.88,280.28l7.2-2.5c1.51-.52,2.75-.56,3.74-.12.99.44,1.73,1.38,2.23,2.8.42,1.19.52,2.18.31,2.95-.21.77-.73,1.42-1.55,1.95l.03.1c1.06-.11,1.92.06,2.56.51.64.46,1.19,1.32,1.63,2.6.51,1.47.54,2.72.09,3.73-.46,1.01-1.51,1.8-3.16,2.38l-7.2,2.5-5.88-16.9ZM209.34,284.45c.23-.19.35-.43.36-.72,0-.29-.07-.69-.25-1.19-.19-.54-.37-.92-.55-1.13-.17-.21-.41-.32-.69-.33-.29,0-.71.09-1.26.29l-2.19.76,1.26,3.64,2.19-.76c.52-.18.9-.37,1.13-.56ZM211.89,291.32c.22-.19.33-.42.34-.71,0-.29-.08-.71-.28-1.27-.19-.56-.39-.95-.57-1.18-.19-.23-.43-.34-.73-.35-.3,0-.71.08-1.25.27l-2.28.8,1.32,3.81,2.28-.79c.56-.19.94-.38,1.16-.57Z"/>
      <path class="cls-3" d="M222.73,290.85l-7.75-16.12,9.7-4.67,1.45,3.02-6.07,2.92,1.66,3.44,5.2-2.5,1.45,3.02-5.2,2.5,1.73,3.61,6.07-2.92,1.45,3.02-9.7,4.67Z"/>
      <path class="cls-3" d="M255.43,271.22l-7.33-9.97-.15.11,4.71,11.9-2.56,1.88-9.93-8.06-.15.11,7.33,9.97-3.06,2.25-10.59-14.42,4.67-3.43,9.2,7.47.15-.11-4.38-11.01,4.63-3.4,10.59,14.42-3.14,2.31Z"/>
      <path class="cls-3" d="M264.14,263.03c-1.03.27-2.04.07-3.03-.6-.99-.67-2.42-1.97-4.32-3.91-1.89-1.93-3.16-3.4-3.81-4.4-.65-1-.83-2.01-.54-3.04.29-1.03,1.21-2.3,2.76-3.81,1.56-1.53,2.86-2.43,3.89-2.7s2.04-.07,3.01.6c.97.67,2.41,1.98,4.32,3.93s3.18,3.41,3.83,4.4.83,1.99.54,3.02c-.29,1.03-1.22,2.3-2.78,3.83-1.55,1.52-2.84,2.41-3.87,2.68ZM266.81,256.43c.1-.36-.07-.83-.51-1.39-.43-.57-1.37-1.59-2.82-3.06-1.44-1.47-2.44-2.43-3-2.88-.56-.45-1.02-.63-1.38-.54-.36.09-.88.46-1.55,1.12-.67.66-1.05,1.16-1.15,1.52-.1.36.07.83.51,1.39.44.57,1.38,1.59,2.82,3.06,1.44,1.48,2.44,2.44,3,2.88.56.45,1.02.63,1.38.54.36-.09.88-.46,1.55-1.12.67-.65,1.05-1.16,1.15-1.52Z"/>
      <path class="cls-3" d="M281.99,244.34l-6.19-2.29-1.62,2.03,4.89,3.92-2.52,3.15-13.97-11.17,4.6-5.75c.92-1.15,1.79-1.88,2.6-2.18.81-.3,1.61-.3,2.41.01.79.31,1.72.89,2.77,1.74.99.79,1.74,1.57,2.27,2.35s.68,1.62.48,2.55l6.94,2.36-2.65,3.31ZM273.71,239.04c.11-.33.07-.63-.12-.91-.18-.28-.58-.66-1.17-1.14-.61-.49-1.07-.79-1.38-.92-.31-.12-.61-.1-.9.08-.29.18-.67.57-1.15,1.16l-1.28,1.6,3.86,3.08,1.27-1.58c.48-.6.77-1.06.87-1.38Z"/>
      <path class="cls-3" d="M287.6,236.69l-15.13-9.54,5.74-9.11,2.84,1.79-3.59,5.7,3.23,2.04,3.08-4.88,2.84,1.79-3.08,4.88,3.39,2.13,3.59-5.7,2.84,1.79-5.74,9.11Z"/>
    </g>
  </g>
</svg>