<?xml version="1.0" encoding="UTF-8"?>
<svg id="Layer_1" data-name="Layer 1" xmlns="http://www.w3.org/2000/svg" version="1.1" viewBox="0 0 447.5 172.7">
  <defs>
    <style>
      .cls-1 {
        stroke-width: 8px;
      }

      .cls-1, .cls-2 {
        fill: none;
        stroke: #231f20;
        stroke-linecap: round;
        stroke-linejoin: round;
      }

      .cls-2 {
        stroke-width: 10px;
      }

      .cls-3 {
        fill: #231f20;
        stroke-width: 0px;
      }
    </style>
  </defs>
  <path class="cls-3" d="M145.9,89.8l-9.1-1.7c.3-5.7-.9-11.3-3.5-16.3l7.6-5.2c1.8-1.2,2.3-3.7,1.1-5.5s-3.7-2.3-5.5-1.1c0,0,0,0,0,0l-7.6,5.2c-3.8-4.2-8.6-7.4-14-9.1l1.7-9.1c.4-2.2-1.1-4.3-3.2-4.6-2.2-.4-4.2,1-4.6,3.2l-1.7,9.1c-5.7-.3-11.3.9-16.3,3.5l-5.2-7.6c-1.2-1.8-3.7-2.3-5.5-1.1-1.8,1.2-2.3,3.7-1.1,5.5,0,0,0,0,0,0l5.2,7.6c-4.2,3.8-7.4,8.6-9.1,14l-9.1-1.7c-2.2-.4-4.3,1-4.7,3.2-.4,2.2,1,4.3,3.2,4.7l9.1,1.7c-.3,5.7.9,11.3,3.5,16.3l-7.6,5.2c-1.8,1.3-2.3,3.7-1,5.6,1.3,1.8,3.7,2.3,5.6,1h0l7.6-5.2c3.8,4.2,8.6,7.4,14,9.1l-1.7,9.1c-.4,2.2,1.1,4.3,3.2,4.6,2.2.4,4.2-1,4.6-3.2l1.7-9.1c5.7.3,11.3-.9,16.3-3.5l5.2,7.6c1.2,1.8,3.7,2.3,5.5,1.1,1.8-1.2,2.3-3.7,1.1-5.5,0,0,0,0,0,0l-5.2-7.6c4.2-3.8,7.4-8.6,9.1-14l9.1,1.7c2.2.4,4.3-1,4.7-3.2.4-2.2-1-4.3-3.2-4.7,0,0,0,0,0,0h0ZM116.5,102.8c-9.1,6.3-21.6,4-27.9-5.1-6.3-9.1-4-21.6,5.1-27.9,9.1-6.3,21.6-4,27.9,5.1,3,4.4,4.2,9.8,3.2,15-1,5.2-4,9.9-8.3,12.9h0Z"/>
  <line class="cls-1" x1="172" y1="4" x2="147.7" y2="4"/>
  <line class="cls-1" x1="299.8" y1="4" x2="275.6" y2="4"/>
  <line class="cls-1" x1="275.6" y1="4" x2="299.8" y2="4"/>
  <line class="cls-1" x1="147.7" y1="4" x2="172" y2="4"/>
  <line class="cls-1" x1="257.7" y1="4" x2="189.9" y2="4"/>
  <line class="cls-1" x1="189.9" y1="4" x2="257.7" y2="4"/>
  <line class="cls-1" x1="325.7" y1="4" x2="443.5" y2="4"/>
  <line class="cls-2" x1="327.5" y1="50.1" x2="327.5" y2="113.9"/>
  <line class="cls-1" x1="4" y1="4" x2="121.8" y2="4"/>
  <line class="cls-1" x1="172" y1="168.7" x2="147.7" y2="168.7"/>
  <line class="cls-1" x1="299.8" y1="168.7" x2="275.6" y2="168.7"/>
  <line class="cls-1" x1="275.6" y1="168.7" x2="299.8" y2="168.7"/>
  <line class="cls-1" x1="147.7" y1="168.7" x2="172" y2="168.7"/>
  <line class="cls-1" x1="257.7" y1="168.7" x2="189.9" y2="168.7"/>
  <line class="cls-1" x1="189.9" y1="168.7" x2="257.7" y2="168.7"/>
  <line class="cls-1" x1="325.7" y1="168.7" x2="443.5" y2="168.7"/>
  <line class="cls-1" x1="4" y1="168.7" x2="121.8" y2="168.7"/>
  <polyline class="cls-2" points="353.3 97.3 327.5 123.1 301.7 97.3"/>
</svg>