<?xml version="1.0" encoding="UTF-8"?>
<svg id="Layer_1" data-name="Layer 1" xmlns="http://www.w3.org/2000/svg" width="100" height="100" viewBox="0 0 100 100">
  <defs>
    <style>
      .cls-1 {
        fill: none;
        stroke: #231f20;
        stroke-miterlimit: 10;
        stroke-width: 5px;
      }

      .cls-2 {
        fill: #000;
        stroke-width: 0px;
      }
    </style>
  </defs>
  <g>
    <path class="cls-2" d="M54.27,8.75l.16-1.09c.73.17,1.24.28,1.55.32.24.04.44.05.58.05s.24-.03.31-.08c.06-.05.11-.11.13-.18.03-.07.05-.18.07-.33.03-.19.04-.33.02-.41-.01-.08-.05-.15-.12-.2-.07-.05-.19-.1-.36-.15l-.97-.29c-.44-.13-.72-.35-.84-.66-.12-.31-.14-.73-.06-1.26.08-.52.22-.9.43-1.15.21-.25.47-.39.78-.44.31-.04.69-.03,1.15.04.56.08,1.13.23,1.71.44l-.16,1.07c-.52-.15-.99-.25-1.41-.31-.44-.07-.73-.07-.86,0-.08.03-.13.08-.16.15-.03.07-.05.18-.08.34-.03.17-.04.29-.03.37,0,.07.04.13.1.17s.16.09.31.13l1.04.31c.23.07.42.16.57.27s.25.27.32.48c.09.28.09.66.02,1.15-.08.57-.23.99-.43,1.25-.2.27-.45.42-.74.47s-.66.04-1.1-.03c-.74-.11-1.39-.26-1.94-.44Z"/>
    <path class="cls-2" d="M62.93,10.73c-.26-.04-.49-.1-.71-.16-.65-.19-1.1-.42-1.36-.7-.25-.27-.37-.63-.35-1.07.02-.44.16-1.08.4-1.92.24-.82.48-1.43.71-1.81.23-.39.52-.63.88-.72.36-.09.87-.04,1.51.15.22.07.45.15.68.25.23.1.42.2.56.29l-.31,1.04c-.47-.2-.79-.32-.95-.37-.39-.12-.67-.16-.84-.12-.17.03-.31.17-.42.39-.11.23-.26.67-.46,1.32-.19.65-.3,1.1-.33,1.35-.03.25.02.44.14.56.12.12.38.24.77.36.33.1.68.17,1.02.22l-.31,1.04c-.17,0-.39-.03-.64-.08Z"/>
    <path class="cls-2" d="M68.19,12.85l.26-2.27-.82-.38-.91,1.97-1.27-.59,2.6-5.62,2.31,1.07c.46.21.78.44.95.69.17.25.23.52.2.81-.04.29-.16.65-.35,1.08-.18.4-.38.72-.6.96-.22.24-.49.36-.82.37l-.22,2.53-1.33-.62ZM69.29,9.63c.12,0,.22-.03.3-.12s.17-.25.29-.49c.11-.25.18-.42.2-.54s-.02-.21-.1-.29-.25-.18-.49-.29l-.65-.3-.72,1.55.64.29c.24.11.42.17.54.18Z"/>
    <path class="cls-2" d="M71.77,14.57c-.17-.33-.17-.69-.01-1.07.16-.38.5-.96,1.02-1.74.52-.78.93-1.31,1.22-1.6.29-.29.62-.42.99-.4.37.03.86.25,1.49.67.63.42,1.02.8,1.19,1.13.16.33.17.68,0,1.06s-.5.96-1.03,1.74c-.52.78-.93,1.32-1.22,1.61-.29.29-.62.42-.99.4-.37-.03-.87-.25-1.5-.67-.62-.42-1.02-.79-1.18-1.12ZM74.19,15.01c.13,0,.27-.08.44-.27.16-.19.44-.58.84-1.17.4-.59.65-1,.76-1.22.11-.22.14-.39.08-.51-.06-.12-.22-.27-.49-.45-.27-.18-.47-.27-.6-.28-.13,0-.27.08-.44.27-.16.19-.44.58-.84,1.17-.4.59-.65,1-.76,1.22-.11.22-.14.39-.08.51.06.12.22.27.49.45.27.18.47.27.6.28Z"/>
    <path class="cls-2" d="M76.57,18.29l4.15-4.6,1.04.94-3.34,3.7,1.52,1.38-.81.9-2.56-2.31Z"/>
    <path class="cls-2" d="M80.42,21.96l4.7-4.03.91,1.06-3.79,3.24,1.33,1.56-.92.78-2.24-2.62Z"/>
    <path class="cls-2" d="M85.55,28.86l.88-.93-.98-1.54-1.21.42-.75-1.19,6.11-1.93,1.05,1.66-4.34,4.71-.76-1.2ZM89.07,25.2l-.03-.05-2.47.85.68,1.07,1.81-1.88Z"/>
    <path class="cls-2" d="M89.44,37.52l2.76-2.86v-.04s-3.36,1.14-3.36,1.14l-.43-1.27,5.86-2,.46,1.34-2.52,2.66v.04s3.09-1.05,3.09-1.05l.43,1.27-5.86,2-.42-1.23Z"/>
    <path class="cls-2" d="M90.38,40.91l6.09-1.09.66,3.67-1.14.2-.41-2.29-1.3.23.35,1.97-1.14.2-.35-1.97-1.36.24.41,2.29-1.14.2-.66-3.67Z"/>
    <path class="cls-2" d="M91.35,49.7l2.15-.78-.03-.9-2.17.06-.04-1.39,6.19-.18.07,2.55c.02.51-.05.9-.2,1.16-.15.26-.36.44-.64.54-.28.1-.65.15-1.12.16-.44.01-.81-.02-1.12-.11-.31-.09-.54-.28-.7-.56l-2.36.93-.04-1.47ZM94.72,49.24c.04.11.12.18.24.21s.3.04.56.04c.27,0,.46-.03.57-.07.11-.04.18-.11.22-.22.04-.11.05-.3.04-.56l-.02-.71-1.71.05.02.7c0,.26.03.45.08.56Z"/>
  </g>
  <path class="cls-1" d="M5.82,45.46C8.1,23.07,27.01,5.59,50,5.59"/>
  <path class="cls-1" d="M94.26,53.66c-1.86,22.81-20.97,40.74-44.26,40.74"/>
  <g>
    <path class="cls-2" d="M45.73,91.25l-.16,1.09c-.73-.17-1.24-.28-1.55-.32-.24-.04-.44-.05-.58-.05s-.24.03-.31.08c-.06.04-.11.11-.13.18-.03.08-.05.18-.07.33-.03.19-.04.33-.02.41.01.08.05.15.12.2.07.05.19.1.36.15l.97.29c.44.13.72.35.84.66.12.31.14.73.06,1.26-.08.52-.22.9-.43,1.15s-.47.39-.78.44c-.31.04-.69.03-1.15-.04-.56-.08-1.13-.23-1.71-.44l.16-1.07c.52.14.99.25,1.41.31.44.07.73.07.86,0,.08-.03.13-.08.16-.15.03-.07.05-.18.08-.34.03-.17.04-.29.03-.37,0-.07-.04-.13-.1-.17s-.16-.09-.31-.13l-1.04-.31c-.23-.07-.42-.16-.57-.27s-.25-.27-.32-.48c-.09-.28-.09-.66-.02-1.15.08-.57.23-.99.43-1.25.2-.27.45-.42.74-.47s.66-.04,1.1.03c.74.11,1.39.26,1.94.45Z"/>
    <path class="cls-2" d="M37.07,89.27c.26.04.49.1.71.16.65.19,1.1.42,1.36.7.25.27.37.63.35,1.07-.02.44-.16,1.08-.4,1.92-.24.82-.48,1.43-.71,1.81-.23.39-.52.63-.88.72s-.87.04-1.51-.15c-.22-.07-.45-.15-.68-.25-.23-.1-.42-.2-.56-.29l.31-1.04c.47.2.79.32.95.37.39.12.67.16.84.12.17-.04.31-.17.42-.39.11-.23.26-.67.46-1.32s.3-1.1.33-1.35c.03-.25-.02-.44-.14-.56-.12-.12-.38-.24-.77-.36-.33-.1-.68-.17-1.02-.22l.31-1.04c.17,0,.39.03.64.08Z"/>
    <path class="cls-2" d="M31.81,87.15l-.26,2.27.82.38.91-1.97,1.27.59-2.6,5.62-2.31-1.07c-.46-.21-.78-.45-.95-.69-.17-.25-.23-.52-.2-.81.04-.29.16-.65.35-1.08.18-.4.38-.72.6-.96.22-.24.49-.36.82-.37l.22-2.53,1.33.62ZM30.71,90.37c-.12,0-.22.03-.3.12s-.17.25-.29.49c-.11.24-.18.42-.2.54s.02.21.1.29.25.18.49.29l.65.3.72-1.55-.64-.29c-.24-.11-.42-.17-.54-.18Z"/>
    <path class="cls-2" d="M28.23,85.43c.17.33.17.69.01,1.07-.16.38-.5.96-1.02,1.74s-.93,1.31-1.22,1.6c-.29.29-.62.42-.99.4-.37-.03-.86-.25-1.49-.67-.63-.42-1.02-.8-1.19-1.13-.16-.33-.17-.68,0-1.06s.5-.96,1.03-1.74c.52-.78.93-1.32,1.22-1.61.29-.29.62-.42.99-.4.37.03.87.25,1.5.67.62.42,1.02.79,1.18,1.12ZM25.81,84.99c-.13,0-.27.08-.44.27-.16.19-.44.58-.84,1.17-.4.59-.65,1-.76,1.22-.11.22-.14.39-.08.51.06.12.22.26.49.45.27.18.47.27.6.28.13,0,.27-.08.44-.27s.44-.58.84-1.17c.4-.59.65-1,.76-1.22.11-.22.14-.39.08-.51-.06-.12-.22-.27-.49-.45-.27-.18-.47-.27-.6-.28Z"/>
    <path class="cls-2" d="M23.43,81.71l-4.15,4.6-1.04-.93,3.34-3.7-1.52-1.38.81-.89,2.56,2.31Z"/>
    <path class="cls-2" d="M19.58,78.04l-4.7,4.03-.91-1.06,3.79-3.24-1.33-1.56.92-.79,2.24,2.62Z"/>
    <path class="cls-2" d="M14.45,71.14l-.88.93.98,1.54,1.21-.42.75,1.18-6.11,1.93-1.05-1.66,4.34-4.71.76,1.2ZM10.93,74.8l.03.04,2.47-.85-.68-1.07-1.81,1.88Z"/>
    <path class="cls-2" d="M10.56,62.47l-2.76,2.87v.04s3.36-1.14,3.36-1.14l.43,1.27-5.86,2-.46-1.34,2.52-2.66v-.04s-3.09,1.05-3.09,1.05l-.43-1.27,5.86-2,.42,1.23Z"/>
    <path class="cls-2" d="M9.62,59.09l-6.09,1.09-.66-3.67,1.14-.21.41,2.29,1.3-.23-.35-1.97,1.14-.21.35,1.97,1.36-.24-.41-2.29,1.14-.21.66,3.67Z"/>
    <path class="cls-2" d="M8.65,50.3l-2.15.78.03.9,2.17-.06.04,1.39-6.19.18-.07-2.55c-.02-.51.05-.9.2-1.16.15-.26.36-.44.64-.54.28-.1.65-.15,1.12-.16.44-.01.81.02,1.12.11.31.09.54.28.7.56l2.36-.93.04,1.47ZM5.28,50.76c-.04-.11-.12-.18-.24-.21s-.3-.04-.56-.04c-.27,0-.46.03-.57.07-.11.04-.18.11-.22.22-.04.11-.05.3-.04.56l.02.71,1.71-.05-.02-.7c0-.26-.03-.45-.08-.56Z"/>
  </g>
</svg>